<svg width="22" height="22" viewBox="0 0 22 22" fill="none" xmlns="http://www.w3.org/2000/svg">
<path d="M6.00002 21H3.00002C2.46958 21 1.96087 20.7893 1.5858 20.4142C1.21073 20.0391 1.00002 19.5304 1.00002 19V12C1.00002 11.4696 1.21073 10.9609 1.5858 10.5858C1.96087 10.2107 2.46958 10 3.00002 10H6.00002M13 8V4C13 3.20435 12.6839 2.44129 12.1213 1.87868C11.5587 1.31607 10.7957 1 10 1L6.00002 10V21H17.28C17.7623 21.0054 18.2304 20.8364 18.5979 20.524C18.9654 20.2116 19.2077 19.7769 19.28 19.3L20.66 10.3C20.7035 10.0134 20.6842 9.72068 20.6034 9.44225C20.5225 9.16382 20.3821 8.90629 20.1919 8.68751C20.0016 8.46873 19.7661 8.29393 19.5016 8.17522C19.2371 8.0565 18.9499 7.99672 18.66 8H13Z" stroke="#15243C" stroke-width="2" stroke-linecap="round" stroke-linejoin="round"/>
</svg>
