<svg width="23" height="23" viewBox="0 0 23 23" fill="none" xmlns="http://www.w3.org/2000/svg">
<path d="M13.1428 9.03571V5.74999C13.1428 5.09642 12.8832 4.46962 12.4211 4.00748C11.9589 3.54533 11.3321 3.28571 10.6786 3.28571L7.39285 10.6786V19.7143H16.6586C17.0548 19.7188 17.4392 19.5799 17.7411 19.3233C18.043 19.0667 18.242 18.7096 18.3014 18.3178L19.435 10.925C19.4707 10.6895 19.4548 10.4491 19.3884 10.2204C19.322 9.9917 19.2067 9.78016 19.0504 9.60045C18.8942 9.42074 18.7007 9.27715 18.4834 9.17963C18.2662 9.08212 18.0303 9.03301 17.7921 9.03571H13.1428ZM7.39285 19.7143H4.92856C4.49285 19.7143 4.07498 19.5412 3.76689 19.2331C3.45879 18.925 3.28571 18.5071 3.28571 18.0714V12.3214C3.28571 11.8857 3.45879 11.4678 3.76689 11.1597C4.07498 10.8516 4.49285 10.6786 4.92856 10.6786H7.39285" fill="#999999"/>
<rect x="6" y="10" width="1" height="10" fill="#E1E7F0"/>
</svg>
