<svg width="17" height="17" viewBox="0 0 17 17" fill="none" xmlns="http://www.w3.org/2000/svg">
<path d="M6.59639 10.9645V14.2502C6.59639 14.9038 6.85602 15.5306 7.31816 15.9927C7.78031 16.4549 8.40711 16.7145 9.06068 16.7145L12.3464 9.32166V0.285941H3.08068C2.68448 0.281462 2.30001 0.420323 1.99811 0.676936C1.69621 0.93355 1.49723 1.29063 1.43782 1.68237L0.304248 9.07523C0.26851 9.31068 0.284391 9.5511 0.35079 9.77981C0.41719 10.0085 0.532521 10.2201 0.688793 10.3998C0.845064 10.5795 1.03854 10.7231 1.25581 10.8206C1.47309 10.9181 1.70897 10.9672 1.94711 10.9645H6.59639ZM12.3464 0.285941H14.5396C15.0045 0.27772 15.4562 0.440481 15.8091 0.743328C16.1619 1.04618 16.3912 1.46803 16.4535 1.9288V7.6788C16.3912 8.13957 16.1619 8.56142 15.8091 8.86427C15.4562 9.16712 15.0045 9.32988 14.5396 9.32166H12.3464" fill="#999999"/>
<rect x="13" width="1" height="10" fill="#E1E7F0"/>
</svg>
